<svg width="33" height="33" viewBox="0 0 33 33" fill="none" xmlns="http://www.w3.org/2000/svg">
<path d="M12.559 7.49061C12.6906 7.49016 12.821 7.51569 12.9427 7.56574C13.0644 7.6158 13.1751 7.68939 13.2683 7.78229L21.2494 15.8012C21.3429 15.8944 21.417 16.0051 21.4675 16.1271C21.518 16.2491 21.5438 16.3799 21.5435 16.5119C21.5432 16.6439 21.5167 16.7745 21.4657 16.8963C21.4146 17.018 21.34 17.1284 21.246 17.2212L13.2271 25.2022C13.0384 25.3901 12.7827 25.4953 12.5164 25.4947C12.2501 25.494 11.995 25.3876 11.8071 25.1989C11.6193 25.0101 11.5141 24.7545 11.5147 24.4882C11.5154 24.2219 11.6217 23.9667 11.8105 23.7789L19.1277 16.5062L11.8449 9.19893C11.7514 9.10574 11.6773 8.99497 11.6268 8.87299C11.5763 8.75101 11.5505 8.62024 11.5508 8.48823C11.5511 8.35622 11.5776 8.22557 11.6286 8.10384C11.6797 7.9821 11.7544 7.87167 11.8483 7.77893C11.942 7.68647 12.0529 7.61341 12.1749 7.56393C12.2969 7.51445 12.4274 7.48954 12.559 7.49061Z" fill="#34322E"/>
</svg>
