<svg width="56" height="50" viewBox="0 0 56 50" fill="none" xmlns="http://www.w3.org/2000/svg">
<g clip-path="url(#clip0_148_2)">
<path d="M55.9806 24.9512C55.9806 26.709 54.5222 28.0859 52.8694 28.0859H49.7583L49.8264 43.7305C49.8264 43.9941 49.8069 44.2578 49.7778 44.5215V46.0938C49.7778 48.252 48.0375 50 45.8889 50H44.3333C44.2264 50 44.1194 50 44.0125 49.9902C43.8764 50 43.7403 50 43.6042 50H40.4444H38.1111C35.9625 50 34.2222 48.252 34.2222 46.0938V43.75V37.5C34.2222 35.7715 32.8319 34.375 31.1111 34.375H24.8889C23.1681 34.375 21.7778 35.7715 21.7778 37.5V43.75V46.0938C21.7778 48.252 20.0375 50 17.8889 50H15.5556H12.4542C12.3083 50 12.1625 49.9902 12.0167 49.9805C11.9 49.9902 11.7833 50 11.6667 50H10.1111C7.9625 50 6.22222 48.252 6.22222 46.0938V35.1562C6.22222 35.0684 6.22222 34.9707 6.23194 34.8828V28.0859H3.11111C1.36111 28.0859 0 26.7188 0 24.9512C0 24.0723 0.291667 23.291 0.972222 22.6074L25.9 0.78125C26.5806 0.0976562 27.3583 0 28.0389 0C28.7194 0 29.4972 0.195312 30.0806 0.683594L54.9111 22.6074C55.6889 23.291 56.0778 24.0723 55.9806 24.9512Z" fill="#34322E"/>
</g>
<defs>
<clipPath id="clip0_148_2">
<rect width="56" height="50" fill="white"/>
</clipPath>
</defs>
</svg>
