<?xml version="1.0" ?><svg height="24" id="svg8" version="1.1" viewBox="0 0 24 24" width="24" xmlns="http://www.w3.org/2000/svg" xmlns:cc="http://creativecommons.org/ns#" xmlns:dc="http://purl.org/dc/elements/1.1/" xmlns:rdf="http://www.w3.org/1999/02/22-rdf-syntax-ns#" xmlns:svg="http://www.w3.org/2000/svg"><defs id="defs2"/><g id="g1476" style="display:inline" transform="translate(0,-290.65)"><path d="M 6.13281,292.65 C 3.86082,292.65 2,294.51082 2,296.78281 v 11.73438 C 2,310.78918 3.86082,312.65 6.13281,312.65 H 17.86719 C 20.13918,312.65 22,310.78918 22,308.51719 V 296.78281 C 22,294.51082 20.13918,292.65 17.86719,292.65 Z m 0,2 H 11 v 7 H 4 v -4.86719 C 4,295.58423 4.93422,294.65 6.13281,294.65 Z m 6.86719,0 h 4.86719 c 1.19859,0 2.13281,0.93423 2.13281,2.13281 v 11.73438 c 0,1.19858 -0.93422,2.13281 -2.13281,2.13281 H 13 Z m -9,9 h 7 v 7 H 6.13281 C 4.93422,310.65 4,309.71577 4,308.51719 Z" id="rect1467" style="color:#000000;font-style:normal;font-variant:normal;font-weight:normal;font-stretch:normal;font-size:medium;line-height:normal;font-family:sans-serif;font-variant-ligatures:normal;font-variant-position:normal;font-variant-caps:normal;font-variant-numeric:normal;font-variant-alternates:normal;font-variant-east-asian:normal;font-feature-settings:normal;font-variation-settings:normal;text-indent:0;text-align:start;text-decoration:none;text-decoration-line:none;text-decoration-style:solid;text-decoration-color:#000000;letter-spacing:normal;word-spacing:normal;text-transform:none;writing-mode:lr-tb;direction:ltr;text-orientation:mixed;dominant-baseline:auto;baseline-shift:baseline;text-anchor:start;white-space:normal;shape-padding:0;shape-margin:0;inline-size:0;clip-rule:nonzero;display:inline;overflow:visible;visibility:visible;opacity:1;isolation:auto;mix-blend-mode:normal;color-interpolation:sRGB;color-interpolation-filters:linearRGB;solid-color:#000000;solid-opacity:1;vector-effect:none;fill:#000000;fill-opacity:1;fill-rule:nonzero;stroke:none;stroke-linecap:round;stroke-linejoin:round;stroke-miterlimit:4;stroke-dasharray:none;stroke-dashoffset:0;stroke-opacity:1;color-rendering:auto;image-rendering:auto;shape-rendering:auto;text-rendering:auto;enable-background:accumulate;stop-color:#000000;stop-opacity:1"/></g></svg>