<svg width="41" height="39" viewBox="0 0 41 39" fill="none" xmlns="http://www.w3.org/2000/svg">
<path d="M28.3437 17.5957C26.6562 16.1789 24.6875 15.0745 22.5234 14.3813V15.4705H12.3047C11.9766 20.018 9.10937 24.0475 4.80469 25.9289C6.75781 27.9323 9.22656 29.4709 12 30.3317C13.6328 30.842 15.3828 31.1162 17.1875 31.1162C18.3984 31.1162 19.5781 30.9944 20.7187 30.7582C23.9766 30.0879 26.8984 28.5188 29.1797 26.3174V18.3498C29.0781 18.2508 28.9844 18.1594 28.8828 18.068C28.7031 17.908 28.5234 17.7481 28.3437 17.5957ZM15.7891 25.1368C14.1094 25.1368 12.75 23.8114 12.75 22.1737C12.75 20.536 14.1094 19.2106 15.7891 19.2106C17.4688 19.2106 18.8281 20.536 18.8281 22.1737C18.8281 23.8114 17.4688 25.1368 15.7891 25.1368ZM24.9766 25.1368C23.2969 25.1368 21.9375 23.8114 21.9375 22.1737C21.9375 20.536 23.2969 19.2106 24.9766 19.2106C26.6562 19.2106 28.0156 20.536 28.0156 22.1737C28.0156 23.8114 26.6562 25.1368 24.9766 25.1368Z" fill="#0052AC"/>
<path d="M11.2422 14.5869C7.71094 15.8666 4.72656 18.2508 2.74219 21.3129C2.33594 21.9375 2.33594 22.7297 2.74219 23.3543C3.13281 23.9637 3.57031 24.5426 4.03906 25.091L4.25 24.9996C8.5 23.1943 11.2422 19.1039 11.2422 14.5869Z" fill="#0052AC"/>
<path d="M32.8359 15.7067L30.2734 18.2051V28.0541H33.2969V18.6545H38.5625V15.7067H32.8359Z" fill="#0052AC"/>
<path d="M36.4609 20.2008C35.9531 20.2008 35.5469 21.0768 35.5469 22.166C35.5469 22.7297 35.6563 23.2401 35.8359 23.5981H34.3906V24.6645H35.8359C35.6563 25.0225 35.5469 25.5328 35.5469 26.0965C35.5469 27.1781 35.9531 28.0617 36.4609 28.0617C36.9688 28.0617 37.375 27.1858 37.375 26.0965C37.375 25.3805 37.1953 24.7483 36.9297 24.4055C36.9766 24.3217 37.0078 24.2303 37.0078 24.1313C37.0078 24.0322 36.9766 23.9332 36.9297 23.8571C37.1953 23.5143 37.375 22.8897 37.375 22.166C37.375 21.0844 36.9688 20.2008 36.4609 20.2008Z" fill="#0052AC"/>
<path d="M11.9922 31.4438V31.9389C11.9922 32.9139 12.8047 33.7061 13.8047 33.7061H18.8984C19.8984 33.7061 20.7109 32.9139 20.7109 31.9389V31.8399C19.5547 32.0608 18.3672 32.175 17.1797 32.175C15.4141 32.175 13.6719 31.9313 11.9922 31.4438Z" fill="#0052AC"/>
<path d="M21.4297 11.601V14.4041H11.7812V11.601H15.4375V9.71954C15.7266 9.81857 16.0391 9.86427 16.3516 9.86427C16.6641 9.86427 16.9766 9.81095 17.2656 9.71954V11.601H21.4297Z" fill="#0052AC"/>
<path d="M15.4453 8.55413C15.7109 8.71409 16.0234 8.80549 16.3594 8.80549C16.6953 8.80549 17.0078 8.71409 17.2734 8.55413C17.7656 8.25706 18.0937 7.72385 18.0937 7.11448C18.0937 6.17756 17.3203 5.42346 16.3594 5.42346C15.6094 5.42346 14.9688 5.88811 14.7266 6.54319C14.6563 6.71838 14.625 6.91643 14.625 7.11448C14.625 7.58674 14.8281 8.02092 15.1484 8.32561C15.2344 8.4094 15.3359 8.48557 15.4453 8.55413Z" fill="#0052AC"/>
<path d="M8.06251 9.57483H9.8672C10.1406 9.57483 10.3594 9.36155 10.3594 9.09495V8.33323H13.8125C13.625 7.95999 13.5313 7.54866 13.5313 7.12209C13.5313 6.93167 13.5547 6.73362 13.5938 6.55081H10.3594V5.78909C10.3594 5.52249 10.1406 5.3092 9.8672 5.3092H8.06251C7.78908 5.3092 7.57033 5.5301 7.57033 5.78909V9.10256C7.56251 9.35393 7.78908 9.57483 8.06251 9.57483Z" fill="#0052AC"/>
</svg>
