<svg width="31" height="24" viewBox="0 0 31 24" fill="none" xmlns="http://www.w3.org/2000/svg">
<path d="M22.4513 10.5126C21.0499 9.336 19.415 8.41878 17.6179 7.84314V8.74771H9.13169C8.8592 12.5242 6.47815 15.8704 2.90332 17.4329C4.52529 19.0965 6.57547 20.3743 8.87867 21.0891C10.2346 21.513 11.6879 21.7407 13.1866 21.7407C14.1922 21.7407 15.1719 21.6395 16.1191 21.4434C18.8246 20.8867 21.2511 19.5836 23.1455 17.7555V11.1388C23.0612 11.0566 22.9833 10.9807 22.899 10.9048C22.7498 10.7719 22.6006 10.6391 22.4513 10.5126ZM12.0253 16.775C10.6304 16.775 9.5015 15.6743 9.5015 14.3143C9.5015 12.9543 10.6304 11.8536 12.0253 11.8536C13.4202 11.8536 14.5491 12.9543 14.5491 14.3143C14.5491 15.6743 13.4202 16.775 12.0253 16.775ZM19.655 16.775C18.2602 16.775 17.1313 15.6743 17.1313 14.3143C17.1313 12.9543 18.2602 11.8536 19.655 11.8536C21.0499 11.8536 22.1788 12.9543 22.1788 14.3143C22.1788 15.6743 21.0499 16.775 19.655 16.775Z" fill="#34322E"/>
<path d="M8.24935 8.01392C5.31683 9.07663 2.83845 11.0566 1.19053 13.5995C0.853157 14.1182 0.853157 14.7761 1.19053 15.2948C1.51492 15.8008 1.87824 16.2816 2.26752 16.737L2.44269 16.6611C5.9721 15.1619 8.24935 11.7651 8.24935 8.01392Z" fill="#34322E"/>
<path d="M26.1819 8.94373L24.0538 11.0186V19.1977H26.5646V11.3918H30.9375V8.94373H26.1819Z" fill="#34322E"/>
<path d="M29.1923 12.6759C28.7706 12.6759 28.4332 13.4034 28.4332 14.3079C28.4332 14.776 28.5241 15.1999 28.6733 15.4972H27.473V16.3828H28.6733C28.5241 16.6801 28.4332 17.1039 28.4332 17.572C28.4332 18.4702 28.7706 19.204 29.1923 19.204C29.614 19.204 29.9514 18.4766 29.9514 17.572C29.9514 16.9774 29.8022 16.4523 29.5816 16.1677C29.6205 16.0981 29.6465 16.0222 29.6465 15.94C29.6465 15.8577 29.6205 15.7755 29.5816 15.7122C29.8022 15.4276 29.9514 14.9089 29.9514 14.3079C29.9514 13.4097 29.614 12.6759 29.1923 12.6759Z" fill="#34322E"/>
<path d="M8.87219 22.0127V22.4239C8.87219 23.2336 9.54693 23.8914 10.3774 23.8914H14.6075C15.4379 23.8914 16.1127 23.2336 16.1127 22.4239V22.3416C15.1525 22.5251 14.1663 22.62 13.1802 22.62C11.7139 22.62 10.2671 22.4175 8.87219 22.0127Z" fill="#34322E"/>
<path d="M16.7096 5.53425V7.8621H8.69702V5.53425H11.7334V3.9718C11.9734 4.05404 12.2329 4.09199 12.4924 4.09199C12.752 4.09199 13.0115 4.04771 13.2515 3.9718V5.53425H16.7096Z" fill="#34322E"/>
<path d="M11.7398 3.00391C11.9604 3.13675 12.2199 3.21266 12.4989 3.21266C12.7779 3.21266 13.0374 3.13675 13.258 3.00391C13.6667 2.75721 13.9392 2.31441 13.9392 1.80836C13.9392 1.0303 13.2969 0.404053 12.4989 0.404053C11.8761 0.404053 11.3441 0.78992 11.1429 1.33393C11.0845 1.47942 11.0586 1.64389 11.0586 1.80836C11.0586 2.20055 11.2273 2.56111 11.4933 2.81414C11.5646 2.88372 11.649 2.94698 11.7398 3.00391Z" fill="#34322E"/>
<path d="M5.60873 3.85159H7.10743C7.33451 3.85159 7.51617 3.67447 7.51617 3.45307V2.8205H10.3838C10.2281 2.51055 10.1503 2.16896 10.1503 1.81472C10.1503 1.65658 10.1697 1.49211 10.2022 1.34029H7.51617V0.707723C7.51617 0.486324 7.33451 0.309204 7.10743 0.309204H5.60873C5.38165 0.309204 5.19999 0.492649 5.19999 0.707723V3.4594C5.1935 3.66815 5.38165 3.85159 5.60873 3.85159Z" fill="#34322E"/>
</svg>
